<?xml version="1.0" encoding="UTF-8"?><svg id="b" xmlns="http://www.w3.org/2000/svg" viewBox="0 0 21.47 26.44"><defs><style>.d{fill:#fff;}</style></defs><g id="c"><path class="d" d="M19.75,8.91v-3.41c0-3.03-2.47-5.5-5.5-5.5H7.22C4.19,0,1.72,2.47,1.72,5.5v3.41H0v10.93c0,3.65,2.96,6.61,6.61,6.61H14.87c3.65,0,6.61-2.96,6.61-6.61V8.91h-1.72Zm-7.94,8.83v3.89c0,.6-.48,1.08-1.08,1.08s-1.08-.48-1.08-1.08v-3.89c-1.1-.49-1.8-1.69-1.51-3.02,.22-1.01,1.06-1.83,2.08-2.01,1.69-.31,3.17,.98,3.17,2.61,0,1.08-.65,2.01-1.58,2.42Zm4.94-8.83H4.72v-3.41c0-1.38,1.12-2.5,2.5-2.5h7.03c1.38,0,2.5,1.12,2.5,2.5v3.41Z"/></g></svg>