<?xml version="1.0" encoding="UTF-8"?><svg id="b" xmlns="http://www.w3.org/2000/svg" viewBox="0 0 29.59 23.89"><defs><style>.d{fill:#c4c4c4;}</style></defs><g id="c"><g><path class="d" d="M14.8,20.82c-5.96,0-11.52-3.21-14.51-8.38l-.29-.5,.29-.5C3.28,6.28,8.84,3.07,14.8,3.07s11.52,3.21,14.51,8.38l.29,.5-.29,.5c-2.99,5.17-8.55,8.38-14.51,8.38ZM2.32,11.95c2.69,4.26,7.42,6.88,12.47,6.88s9.78-2.62,12.47-6.88c-2.69-4.26-7.42-6.88-12.47-6.88S5.02,7.69,2.32,11.95Z"/><path class="d" d="M14.8,20.82c-4.9,0-8.88-3.98-8.88-8.88S9.9,3.07,14.8,3.07s8.88,3.98,8.88,8.88-3.98,8.88-8.88,8.88Zm0-15.75c-3.79,0-6.88,3.08-6.88,6.88s3.08,6.88,6.88,6.88,6.88-3.08,6.88-6.88-3.08-6.88-6.88-6.88Z"/><rect class="d" x="-1.1" y="10.94" width="31.79" height="2" transform="translate(-4.11 13.96) rotate(-45)"/></g></g></svg>